<mxfile host="app.diagrams.net" modified="2023-04-11T09:32:56.930Z" agent="Mozilla/5.0 (Windows NT 10.0; Win64; x64; rv:109.0) Gecko/20100101 Firefox/111.0" version="21.1.4" etag="4ykfYpBWQDLWkeWW6N2-" type="github">
  <diagram name="Страница 1" id="ei1KMzxly2sDSdpJQlML">
    <mxGraphModel>
      <root>
        <mxCell id="0" />
        <mxCell id="1" parent="0" />
      </root>
    </mxGraphModel>
  </diagram>
</mxfile>
